inDegrees=no
num_controls=7
num_derivatives=13
num_iterations=80
num_multipliers=7
num_parameters=0
num_slacks=7
num_states=26
objective=0.477234
objective_accelerations=0.045464
objective_balance=0.003680
objective_effort=0.041378
objective_height=0.381059
objective_ligament=0.005653
solver_duration=1096.298980
status=Solve_Succeeded
success=true
DataType=double
version=3
OpenSimVersion=4.5
endheader
time	/jointset/ground_pelvis/pelvis_tilt/value	/jointset/ground_pelvis/pelvis_tx/value	/jointset/ground_pelvis/pelvis_ty/value	/jointset/hip_l/hip_flexion_l/value	/jointset/hip_l/hip_adduction_l/value	/jointset/hip_l/hip_rotation_l/value	/jointset/back/lumbar_extension/value	/jointset/patellofemoral_l/patellar_flexion_l/value	/jointset/knee_l/knee_flexion_l/value	/jointset/knee_l/knee_adduction_l/value	/jointset/knee_l/knee_rotation_l/value	/jointset/ankle_l/ankle_angle_l/value	/jointset/subtalar_l/subtalar_angle_l/value	/jointset/ground_pelvis/pelvis_tilt/speed	/jointset/ground_pelvis/pelvis_tx/speed	/jointset/ground_pelvis/pelvis_ty/speed	/jointset/hip_l/hip_flexion_l/speed	/jointset/hip_l/hip_adduction_l/speed	/jointset/hip_l/hip_rotation_l/speed	/jointset/back/lumbar_extension/speed	/jointset/patellofemoral_l/patellar_flexion_l/speed	/jointset/knee_l/knee_flexion_l/speed	/jointset/knee_l/knee_adduction_l/speed	/jointset/knee_l/knee_rotation_l/speed	/jointset/ankle_l/ankle_angle_l/speed	/jointset/subtalar_l/subtalar_angle_l/speed	/forceset/tau_hip_flexion_l	/forceset/tau_hip_adduction_l	/forceset/tau_hip_rotation_l	/forceset/tau_knee_flexion_l	/forceset/tau_ankle_angle_l	/forceset/tau_subtalar_angle_l	/forceset/tau_lumbar_extension	lambda_cid13_p0	lambda_cid13_p1	lambda_cid13_p2	lambda_cid13_p3	lambda_cid13_p4	lambda_cid13_p5	lambda_cid14_p0	/jointset/ground_pelvis/pelvis_tilt/accel	/jointset/ground_pelvis/pelvis_tx/accel	/jointset/ground_pelvis/pelvis_ty/accel	/jointset/hip_l/hip_flexion_l/accel	/jointset/hip_l/hip_adduction_l/accel	/jointset/hip_l/hip_rotation_l/accel	/jointset/back/lumbar_extension/accel	/jointset/patellofemoral_l/patellar_flexion_l/accel	/jointset/knee_l/knee_flexion_l/accel	/jointset/knee_l/knee_adduction_l/accel	/jointset/knee_l/knee_rotation_l/accel	/jointset/ankle_l/ankle_angle_l/accel	/jointset/subtalar_l/subtalar_angle_l/accel	gamma_cid13_p0	gamma_cid13_p1	gamma_cid13_p2	gamma_cid13_p3	gamma_cid13_p4	gamma_cid13_p5	gamma_cid14_p0
1.5	0.004557890425405004	-0.01337689424487545	0.8506550025298687	0.684669980767673	-0.3215867257270631	-0.1325155674171239	-0.7939921219618555	0.783897168461727	0.7838971684617849	-0.09947844173868223	-0.1745012676419876	0.1530488025197129	0.02506389019169318	0.3302673445231569	0.2377470377889628	0.4340961319823645	-2.026696455962008	0.08334399612974432	-0.6473356763764104	0.8524650714425471	-2.027575347054436	-2.027575347054436	-0.1536890192539007	-0.001272600846789326	-0.4550271815962059	-0.06450409861584784	-0.1968867107141722	0.04218709900380861	-0.00600597727604818	-0.2301683091736399	0.07894530493483072	0.02288990239503995	0.2783943389159703	-17.31473422855979	-8.332640049462755	2.499825674711636	-9.672183545014857	-667.8264230124207	-57.66562473568295	-15.05967022931004	0.01665251390247642	0.703837096550873	-0.6383965575960387	-0.73880033757957	0.4875421791444186	-0.3550534856383314	2.014439215338271	-0.9704844421430876	-0.970484442143088	-0.244450062326017	0.04826349916579458	-0.2285876118510595	0.4922829790656312	3.883737239403032e-07	8.077697999479814e-07	-1.8330186459237e-06	-8.757808579436369e-08	4.756371905851724e-07	5.740016594148649e-07	3.25767030413475e-07
1.51	0.007861218094731398	-0.01096450864057475	0.8549631987992476	0.6643678415957385	-0.3207299743758515	-0.1390053067111646	-0.7853684005112941	0.7635750074629175	0.7635750074629161	-0.1010301719126243	-0.1745122044576422	0.1484873147630552	0.02444217412066346	0.3303461307812889	0.244698068694064	0.4274528333798399	-2.033453452085759	0.0880113492307221	-0.6505431568461549	0.8721494288248098	-2.0365780881645	-2.036578088164498	-0.1566400918650997	-0.0009007898498838954	-0.4571934718541222	-0.05981518648974768	-0.1893777253882337	0.04100467011296222	-0.005772202623206242	-0.2263011862477551	0.07932561391738778	0.02230216413251034	0.2710101998644046	-16.9475962646261	-8.230841145790631	2.585451892673938	-9.462578622102283	-663.0945867674806	-57.81099342001225	-15.79200780795801	-0.004284025328784339	0.6859202666699311	-0.6907350400294756	-0.6024174575939444	0.4572288493067826	-0.2929104631825217	1.925965522953623	-0.8234216318555136	-0.8234216318552214	-0.3177969479105334	0.03339262905434424	-0.1990757936710886	0.4608329126113134	3.952497267670229e-07	9.385611965482889e-07	-1.803186323905359e-06	-7.486834764394675e-08	5.073869754147354e-07	6.476378644753617e-07	3.33074619741987e-07
1.52	0.01116377848521573	-0.008483575891387015	0.8592022743769115	0.6440064788210013	-0.3198263700988875	-0.1455249838370058	-0.7765517291822532	0.7431711685157207	0.743171168515666	-0.1026108850301426	-0.1745190726175361	0.1439064788916364	0.02386807468754045	0.3301138887555364	0.251456466766369	0.4202719936393472	-2.038541176522354	0.09271458128099187	-0.6533232427375075	0.8910550471384111	-2.04391093673126	-2.043910936731257	-0.159485607972048	-0.0004588696889252739	-0.4588968045484056	-0.0549807710344851	-0.1818687400622805	0.03982224122212213	-0.005538427970271094	-0.2224340633218702	0.07970592289994646	0.0217144258699898	0.2636260608128491	-16.57890533283468	-8.130206999257089	2.672285325113366	-9.30560517761467	-658.3741237961054	-58.01755300406517	-16.51269718082905	-0.04555314287444707	0.6653105299916027	-0.745904785189626	-0.4049460001486965	0.4947179690028649	-0.2695745699598633	1.858691401605998	-0.6365059334825257	-0.6365059334825202	-0.223338761475851	0.06228533197659439	-0.1359960991245389	0.5213836448981682	3.37745947742638e-07	1.322514951700825e-06	-1.381743319207552e-06	7.452519844879455e-09	4.833456368203623e-07	6.949290926849623e-07	3.153585189123339e-07
1.53	0.01446261418342168	-0.005935997801773039	0.8633669445252634	0.6236024348713701	-0.3188754143053571	-0.1520726426189016	-0.7675502052934908	0.722702660700729	0.7227026607007135	-0.1042177629509191	-0.174522844896793	0.1393112458415201	0.0233433707773561	0.329612563924072	0.2580290900347527	0.4125790202099414	-2.042000249034059	0.09746336703446645	-0.6560708599837444	0.9090953415085692	-2.049485503224789	-2.049485503224783	-0.1619335414587154	-0.0002525637253165413	-0.460049833141938	-0.04995002466370929	-0.1739992832335434	0.03826300531013926	-0.005349349761011865	-0.2193855658211473	0.08116759891520439	0.02090176715654509	0.256029090255362	-15.88343154703243	-7.973248738040475	2.732023956878989	-9.400103706776976	-653.8676858710215	-58.16667682163239	-17.22214807559368	-0.05853435458700268	0.6487785373262732	-0.7933749107979836	-0.2762919808814165	0.462709589557297	-0.2564727731864261	1.753540088908669	-0.4722130187560769	-0.4722130187555236	-0.2616731738371708	0.006227405026052821	-0.08988260006227138	0.4950601422083065	2.118386505014553e-07	1.9754537128151e-06	-5.442139641628174e-07	1.637352122557647e-07	4.000262295880575e-07	7.142287829904855e-07	2.710547472896306e-07
